<svg xmlns="http://www.w3.org/2000/svg" width="14.98" height="13.435" viewBox="0 0 14.98 13.435">
    <g>
        <path fill="#fff" d="M51.465 2.687a1.266 1.266 0 0 0-.965-.447h-1.223v-.382A.859.859 0 0 0 48.419 1h-8.288a.859.859 0 0 0-.858.858v.382H38.05a1.266 1.266 0 0 0-.966.447A1.25 1.25 0 0 0 36.8 3.7c.321 1.975 1.564 2.9 3.328 3.854a8.638 8.638 0 0 0 .547 1.1 5.1 5.1 0 0 0 2.345 2.213c.09.91-1.516 1.115-2.428 1.321h-.005a.4.4 0 0 0-.311.393v1.857h8.034v-1.86a.4.4 0 0 0-.31-.394c-.919-.207-2.526-.42-2.427-1.338a5.13 5.13 0 0 0 2.306-2.2 8.643 8.643 0 0 0 .547-1.1c1.759-.946 3.001-1.872 3.322-3.846a1.25 1.25 0 0 0-.283-1.013zM37.6 3.569a.436.436 0 0 1 .1-.358.457.457 0 0 1 .349-.161h1.222v.745a7.245 7.245 0 0 0 .429 2.512c-1.106-.878-1.87-1.33-2.1-2.738zm13.349 0c-.229 1.408-.993 1.86-2.1 2.738a7.245 7.245 0 0 0 .432-2.512V3.05H50.5a.457.457 0 0 1 .349.161.436.436 0 0 1 .1.358z" transform="translate(-36.785 -1)"/>
    </g>
</svg>
