<svg xmlns="http://www.w3.org/2000/svg" width="16" height="16" viewBox="0 0 16 16">
    <defs>
        <style>
            .cls-3{fill:#f6f6f2}
        </style>
    </defs>
    <g id="icon-admin" opacity="0.7">
        <g id="그룹_48" transform="translate(1 1)">
            <path id="패스_142" d="M14.606 9.632a5.5 5.5 0 0 1 .829.075v-4L9.218 3 3 5.711v4.07a8.467 8.467 0 0 0 6.218 8.141 7.6 7.6 0 0 0 1.326-.456 4.966 4.966 0 0 1 4.062-7.834z" class="cls-3" transform="translate(-3 -3)"/>
            <path id="패스_143" d="M16.316 13a3.316 3.316 0 1 0 3.316 3.316A3.315 3.315 0 0 0 16.316 13zm0 1.144a.928.928 0 1 1-.928.928.932.932 0 0 1 .928-.928zm0 4.452a2.259 2.259 0 0 1-1.857-.97c.041-.6 1.252-.9 1.857-.9s1.816.3 1.857.9a2.259 2.259 0 0 1-1.857.974z" class="cls-3" transform="translate(-4.71 -4.71)"/>
        </g>
    </g>
</svg>
