<svg xmlns="http://www.w3.org/2000/svg" width="69.792" height="69.792" viewBox="0 0 69.792 69.792">
    <path fill="none" d="M0 0h69.477v69.477H0z"/>
    <path fill="#e4dcd3" d="M49.318 3H8.79A5.788 5.788 0 0 0 3 8.79v40.528a5.788 5.788 0 0 0 5.79 5.79h40.528a5.807 5.807 0 0 0 5.79-5.79V8.79A5.807 5.807 0 0 0 49.318 3zm-5.79 28.949H31.949v11.579h-5.79V31.949h-11.58v-5.79h11.58v-11.58h5.79v11.58h11.579z" transform="translate(14.685 14.685)"/>
    <path fill="none" stroke="#e4dcd3" stroke-width="2px" d="M49.318 3H8.79A5.788 5.788 0 0 0 3 8.79v40.528a5.788 5.788 0 0 0 5.79 5.79h40.528a5.807 5.807 0 0 0 5.79-5.79V8.79A5.807 5.807 0 0 0 49.318 3z" transform="translate(6.685 6.685)"/>
</svg>
